Coordinates
version=1
nRows=4
nColumns=63
inDegrees=yes

Units are S.I. units (second, meters, Newtons, ...)
If the header above contains a line with 'inDegrees', this indicates whether rotational values are in degrees (yes) or radians (no).

endheader
time	pelvis_tilt	pelvis_list	pelvis_rotation	pelvis_tx	pelvis_ty	pelvis_tz	hip_flexion_r	hip_adduction_r	hip_rotation_r	knee_angle_r	knee_angle_r_beta	ankle_angle_r	subtalar_angle_r	mtp_angle_r	hip_flexion_l	hip_adduction_l	hip_rotation_l	knee_angle_l	knee_angle_l_beta	ankle_angle_l	subtalar_angle_l	mtp_angle_l	L5_S1_Flex_Ext	L5_S1_Lat_Bending	L5_S1_axial_rotation	L4_L5_Flex_Ext	L4_L5_Lat_Bending	L4_L5_axial_rotation	L3_L4_Flex_Ext	L3_L4_Lat_Bending	L3_L4_axial_rotation	L2_L3_Flex_Ext	L2_L3_Lat_Bending	L2_L3_axial_rotation	L1_L2_Flex_Ext	L1_L2_Lat_Bending	L1_L2_axial_rotation	L1_T12_Flex_Ext	L1_T12_Lat_Bending	L1_T12_axial_rotation	Abs_r3	Abs_r2	Abs_r1	Abs_t1	Abs_t2	neck_flexion	neck_bending	neck_rotation	arm_flex_r	arm_add_r	arm_rot_r	elbow_flex_r	pro_sup_r	wrist_flex_r	wrist_dev_r	arm_flex_l	arm_add_l	arm_rot_l	elbow_flex_l	pro_sup_l	wrist_flex_l	wrist_dev_l
      0.43333333	    -22.99036396	      6.75891151	    -98.02029592	     -0.05335297	      0.97754584	     -1.11483095	     24.18591100	     -5.06581286	    -26.49034189	     59.68091221	      1.04162842	     15.29120302	     14.94457630	      0.00000000	     34.02143437	    -18.55128390	     16.36872603	     60.20222306	      1.05072701	     22.17134456	    -19.57003707	      0.00000000	     -0.00622162	     -0.79637554	      0.45051255	     -0.01155417	     -1.05917947	      0.47866958	     -0.01022150	     -1.93630749	      0.47866958	     -0.00711069	     -1.93630749	      0.39419848	     -0.00577739	     -1.62396900	      0.36604145	     -0.00355503	     -1.23358571	      0.33788441	     -0.04444039	     -9.00875937	      2.50561564	      0.00000000	      0.00000000	    -11.54361520	     11.30508349	     -2.60274028	    -20.55154970	    -35.27748079	    -63.78431519	     92.12341011	     89.99559364	      0.00000000	      0.00000000	     -5.81028065	    -41.85210115	     11.19572943	     28.65686223	     89.99559364	      0.00000000	      0.00000000
      0.45000000	    -22.95091250	      6.67461983	    -99.83943410	     -0.05700268	      0.97767392	     -1.10664418	     25.21311001	     -6.20965251	    -24.04689334	     57.37097525	      1.00131241	     13.67019905	     15.67003034	      0.00000000	     32.90364495	    -19.61552250	     14.65160025	     60.67553742	      1.05898790	     22.34851496	    -19.53505025	      0.00000000	     -0.00748538	     -0.92589531	      1.03997072	     -0.01390109	     -1.23144076	      1.10496889	     -0.01229772	     -2.25122185	      1.10496889	     -0.00855504	     -2.25122185	      0.90997438	     -0.00695092	     -1.88808571	      0.84497621	     -0.00427714	     -1.43421183	      0.77997804	     -0.05346729	    -10.47391289	      5.78400516	      0.00000000	      0.00000000	    -11.33115732	     11.41421969	     -3.69943363	    -23.84476658	    -34.44663050	    -67.48102402	     92.18520691	     89.99559364	      0.00000000	      0.00000000	     -4.15508353	    -41.95585614	      8.80483074	     29.20931227	     89.99559364	      0.00000000	      0.00000000
      0.46666667	    -23.50377240	      6.65943262	    -99.55265829	     -0.05838240	      0.97700117	     -1.09753577	     25.52683496	     -7.51088051	    -23.62972977	     54.76189645	      0.95577540	     12.33511134	     16.35850878	      0.00000000	     32.44444437	    -20.08844713	     15.08207072	     60.82381521	      1.06157584	     22.78074595	    -19.50402740	      0.00000000	     -0.00876407	     -0.98954692	      1.23493358	     -0.01627576	     -1.31609740	      1.31211693	     -0.01439850	     -2.40598438	      1.31211693	     -0.01001646	     -2.40598438	      1.08056688	     -0.00813832	     -2.01788408	      1.00338353	     -0.00500779	     -1.53280818	      0.92620018	     -0.06260090	    -11.19395266	      6.86833008	      0.00000000	      0.00000000	    -11.14482735	     10.21767943	     -7.29878460	    -26.92108118	    -33.90652871	    -70.57821214	     91.89476417	     89.99559364	      0.00000000	      0.00000000	     -3.58819315	    -41.06588319	      1.76856892	     30.47392644	     89.99559364	      0.00000000	      0.00000000
      0.48333333	    -24.38431089	      6.62045934	    -97.70213366	     -0.05835181	      0.97589929	     -1.08774063	     25.18149925	     -9.00899657	    -24.63488100	     52.17386376	      0.91060571	     11.61577771	     16.90039945	      0.00000000	     32.44310866	    -20.09745872	     16.96597440	     60.73608934	      1.06004473	     23.43528545	    -19.47685646	      0.00000000	     -0.01084578	     -1.01474755	      1.17251840	     -0.02014170	     -1.34961424	      1.24580080	     -0.01781853	     -2.46725718	      1.24580080	     -0.01239564	     -2.46725718	      1.02595360	     -0.01007139	     -2.06927320	      0.95267120	     -0.00619728	     -1.57184395	      0.87938880	     -0.07747033	    -11.47902719	      6.52119558	      0.00000000	      0.00000000	    -11.51938268	     10.42612583	     -7.83627334	    -29.95231934	    -33.31104379	    -73.55355692	     91.58266643	     89.99559364	      0.00000000	      0.00000000	     -2.33679649	    -41.33309738	      0.97626938	     31.47485950	     89.99559364	      0.00000000	      0.00000000
